<?xml version="1.0" encoding="UTF-8"?>
<svg width="635px" height="183px" viewBox="0 0 635 183" version="1.1" xmlns="http://www.w3.org/2000/svg" xmlns:xlink="http://www.w3.org/1999/xlink">
    <!-- Generator: Sketch 51.2 (57519) - http://www.bohemiancoding.com/sketch -->
    <title>Logo</title>
    <desc>Created with Sketch.</desc>
    <defs></defs>
    <g id="Logo" stroke="none" stroke-width="1" fill="none" fill-rule="evenodd">
        <g transform="translate(-430.000000, -423.000000)">
            <g transform="translate(435.000000, 428.000000)">
                <g id="Emblem" stroke="#000000" stroke-linejoin="round" stroke-width="8.57142857">
                    <polyline id="Shape" points="42.8571429 172.968172 64.2857143 160.618778 64.2857143 135.920077"></polyline>
                    <path d="M64.2857143,86.5226731 L0,49.4745776 L0,74.1732794 L21.4285714,86.5226731 L21.4285714,160.618778 L42.8571429,172.968172 C43.0285714,124.289577 43.0285714,99.5908752 42.8571429,98.8720668 C42.6857143,98.1532013 49.8285714,102.269637 64.2857143,111.221375 L64.2857143,86.5226731 L85.7142857,74.1732794 L85.7142857,98.8720668 L64.2857143,111.221375 L64.2857143,135.920077 L85.7142857,148.26947 L85.7142857,123.570769 L64.2857143,111.221375" id="Shape"></path>
                    <polyline id="Shape" points="0 49.4745776 21.4285714 37.1252695 85.7142857 74.1732794"></polyline>
                    <polyline id="Shape" points="85.7142857 98.8720668 107.142857 111.221375 85.7142857 123.570769"></polyline>
                    <polyline id="Shape" points="85.7142857 148.26947 150 111.221375 150 86.5226731 128.571429 98.8720668 128.571429 24.7758759 107.142857 12.4265678 85.7142857 24.7758759 107.142857 37.1252695 128.571429 24.7758759"></polyline>
                    <path d="M150,86.5226731 L128.571429,74.1732794" id="Shape" fill-rule="nonzero"></path>
                    <path d="M107.142857,37.1252695 L107.142857,111.221375" id="Shape" fill-rule="nonzero"></path>
                    <polyline id="Shape" points="21.4285714 12.4265678 42.8571429 0.0771740851 85.7142857 24.7758759 85.7142857 49.4745776 21.4285714 12.4265678 21.4285714 37.1252695"></polyline>
                </g>
                <path d="M204.810811,70.668435 L204.810811,112 L191.189189,112 L191.189189,70.668435 L180,70.668435 L180,59 L216,59 L216,70.668435 L204.810811,70.668435 Z M233,85.5 C233,87.5913566 233.399996,89.5200232 234.2,91.2860577 C235.000004,93.0520922 236.082346,94.5857307 237.447059,95.8870192 C238.811772,97.1883078 240.399991,98.199115 242.211765,98.9194712 C244.023538,99.6398273 245.941166,100 247.964706,100 C249.988245,100 251.905873,99.6398273 253.717647,98.9194712 C255.529421,98.199115 257.129405,97.1883078 258.517647,95.8870192 C259.905889,94.5857307 260.999996,93.0520922 261.8,91.2860577 C262.600004,89.5200232 263,87.5913566 263,85.5 C263,83.4086434 262.600004,81.4799768 261.8,79.7139423 C260.999996,77.9479078 259.905889,76.4142693 258.517647,75.1129808 C257.129405,73.8116922 255.529421,72.800885 253.717647,72.0805288 C251.905873,71.3601727 249.988245,71 247.964706,71 C245.941166,71 244.023538,71.3601727 242.211765,72.0805288 C240.399991,72.800885 238.811772,73.8116922 237.447059,75.1129808 C236.082346,76.4142693 235.000004,77.9479078 234.2,79.7139423 C233.399996,81.4799768 233,83.4086434 233,85.5 Z M218,86 C218,82.0602818 218.730132,78.3903018 220.190419,74.9899497 C221.650706,71.5895977 223.676235,68.6231282 226.267066,66.0904523 C228.857897,63.5577763 231.955072,61.5762216 235.558683,60.1457286 C239.162293,58.7152357 243.130916,58 247.464671,58 C251.751319,58 255.708165,58.7152357 259.335329,60.1457286 C262.962493,61.5762216 266.08322,63.5577763 268.697605,66.0904523 C271.311989,68.6231282 273.349294,71.5895977 274.809581,74.9899497 C276.269868,78.3903018 277,82.0602818 277,86 C277,89.9397182 276.269868,93.6096982 274.809581,97.0100503 C273.349294,100.410402 271.311989,103.376872 268.697605,105.909548 C266.08322,108.442224 262.962493,110.423778 259.335329,111.854271 C255.708165,113.284764 251.751319,114 247.464671,114 C243.130916,114 239.162293,113.284764 235.558683,111.854271 C231.955072,110.423778 228.857897,108.442224 226.267066,105.909548 C223.676235,103.376872 221.650706,100.410402 220.190419,97.0100503 C218.730132,93.6096982 218,89.9397182 218,86 Z M297.900709,80.8607427 L314.851064,59 L332.014184,59 L310.808511,84.0941645 L334,112 L315.985816,112 L297.900709,89.0145889 L297.900709,112 L284,112 L284,59 L297.900709,59 L297.900709,80.8607427 Z M368,70.668435 L351.706294,70.668435 L351.706294,79.5251989 L367.090909,79.5251989 L367.090909,91.193634 L351.706294,91.193634 L351.706294,100.331565 L368,100.331565 L368,112 L338,112 L338,59 L368,59 L368,70.668435 Z M377,112 L377,59 L390.795485,59 L416.2749,91.4045093 L416.2749,59 L430,59 L430,112 L416.2749,112 L390.795485,79.5954907 L390.795485,112 L377,112 Z M453,101 L456.115385,101 C458.469243,101 460.569222,100.620857 462.415385,99.8625592 C464.261548,99.1042616 465.819224,98.061618 467.088462,96.7345972 C468.357699,95.4075763 469.32692,93.8317627 469.996154,92.007109 C470.665388,90.1824553 471,88.1801057 471,86 C471,83.8672879 470.65385,81.8767865 469.961538,80.028436 C469.269227,78.1800855 468.288468,76.5924237 467.019231,75.2654028 C465.749994,73.938382 464.192317,72.8957384 462.346154,72.1374408 C460.499991,71.3791431 458.423088,71 456.115385,71 L453,71 L453,101 Z M439,59 L459.181543,59 C462.753926,59 466.105884,59.7263411 469.237519,61.1790451 C472.369153,62.6317491 475.106393,64.5647536 477.449319,66.9781167 C479.792246,69.3914798 481.636403,72.2031228 482.981846,75.41313 C484.327289,78.6231372 485,81.9853936 485,85.5 C485,88.967745 484.338887,92.306571 483.016641,95.5165782 C481.694396,98.7265855 479.861837,101.549944 477.518911,103.986737 C475.175984,106.423531 472.438745,108.368251 469.30711,109.820955 C466.175476,111.273659 462.800321,112 459.181543,112 L439,112 L439,59 Z M519,93 L513,75 L507,93 L519,93 Z M523.271574,102.791777 L503.728426,102.791777 L500.587563,112 L486,112 L506.031726,59 L520.968274,59 L541,112 L526.412437,112 L523.271574,102.791777 Z M563.810811,70.668435 L563.810811,112 L550.189189,112 L550.189189,70.668435 L539,70.668435 L539,59 L575,59 L575,70.668435 L563.810811,70.668435 Z M608,93 L602,75 L596,93 L608,93 Z M612.271574,102.791777 L592.728426,102.791777 L589.587563,112 L575,112 L595.031726,59 L609.968274,59 L630,112 L615.412437,112 L612.271574,102.791777 Z" id="TOKENDATA" fill="#000000"></path>
            </g>
        </g>
    </g>
</svg>