<svg width="635" height="183" xmlns="http://www.w3.org/2000/svg">
  <g fill="none" fill-rule="evenodd">
    <g stroke="#FFF" stroke-linejoin="round" stroke-width="8.571">
      <path d="M47.857 177.968l21.429-12.35V140.92"/>
      <path d="M69.286 91.523L5 54.475v24.698l21.429 12.35v74.096l21.428 12.35c.172-48.68.172-73.378 0-74.097-.171-.719 6.972 3.398 21.429 12.35v-24.7l21.428-12.349v24.7L69.286 116.22v24.7l21.428 12.348v-24.698l-21.428-12.35"/>
      <path d="M5 54.475l21.429-12.35 64.285 37.048M90.714 103.872l21.429 12.35-21.429 12.349"/>
      <path d="M90.714 153.27L155 116.22V91.523l-21.429 12.35V29.775l-21.428-12.35-21.429 12.35 21.429 12.35 21.428-12.35M155 91.523l-21.429-12.35M112.143 42.125v74.096M26.429 17.427l21.428-12.35 42.857 24.699v24.699L26.43 17.427v24.698"/>
    </g>
    <path d="M209.81 75.668V117h-13.62V75.668H185V64h36v11.668h-11.19zM238 90.5c0 2.091.4 4.02 1.2 5.786a14.63 14.63 0 0 0 3.247 4.601 14.699 14.699 0 0 0 4.765 3.032c1.812.72 3.73 1.081 5.753 1.081s3.94-.36 5.753-1.08a15.113 15.113 0 0 0 4.8-3.033 14.36 14.36 0 0 0 3.282-4.6c.8-1.767 1.2-3.696 1.2-5.787 0-2.091-.4-4.02-1.2-5.786a14.36 14.36 0 0 0-3.282-4.601 15.113 15.113 0 0 0-4.8-3.032A15.427 15.427 0 0 0 252.965 76c-2.024 0-3.941.36-5.753 1.08-1.812.72-3.4 1.732-4.765 3.033a14.63 14.63 0 0 0-3.247 4.6c-.8 1.767-1.2 3.696-1.2 5.787zm-15 .5c0-3.94.73-7.61 2.19-11.01 1.46-3.4 3.486-6.367 6.077-8.9 2.59-2.532 5.688-4.514 9.292-5.944 3.603-1.43 7.572-2.146 11.906-2.146 4.286 0 8.243.715 11.87 2.146 3.627 1.43 6.748 3.412 9.363 5.944 2.614 2.533 4.651 5.5 6.112 8.9 1.46 3.4 2.19 7.07 2.19 11.01 0 3.94-.73 7.61-2.19 11.01-1.46 3.4-3.498 6.367-6.112 8.9-2.615 2.532-5.736 4.514-9.363 5.944-3.627 1.43-7.584 2.146-11.87 2.146-4.334 0-8.303-.715-11.906-2.146-3.604-1.43-6.701-3.412-9.292-5.944-2.59-2.533-4.616-5.5-6.077-8.9-1.46-3.4-2.19-7.07-2.19-11.01zm79.9-5.14L319.852 64h17.163L315.81 89.094 339 117h-18.014L302.9 94.015V117H289V64h13.9v21.86zM373 75.669h-16.294v8.857h15.385v11.669h-15.385v9.138H373V117h-30V64h30v11.668zM382 117V64h13.795l25.48 32.405V64H435v53h-13.725l-25.48-32.405V117H382zm76-11h3.115c2.354 0 4.454-.38 6.3-1.137 1.847-.759 3.404-1.801 4.673-3.128 1.27-1.327 2.239-2.903 2.908-4.728C475.666 95.182 476 93.18 476 91c0-2.133-.346-4.123-1.038-5.972-.693-1.848-1.674-3.436-2.943-4.763-1.269-1.327-2.827-2.37-4.673-3.128S463.423 76 461.116 76H458v30zm-14-42h20.182c3.572 0 6.924.726 10.056 2.179 3.131 1.453 5.868 3.386 8.211 5.8 2.343 2.412 4.187 5.224 5.533 8.434A25.836 25.836 0 0 1 490 90.5c0 3.468-.661 6.807-1.983 10.017-1.323 3.21-3.155 6.033-5.498 8.47-2.343 2.437-5.08 4.381-8.212 5.834-3.132 1.453-6.507 2.179-10.125 2.179H444V64zm80 34l-6-18-6 18h12zm4.272 9.792h-19.544l-3.14 9.208H491l20.032-53h14.936L546 117h-14.588l-3.14-9.208zm40.539-32.124V117h-13.622V75.668H544V64h36v11.668h-11.19zM613 98l-6-18-6 18h12zm4.272 9.792h-19.544l-3.14 9.208H580l20.032-53h14.936L635 117h-14.588l-3.14-9.208z" fill="#FFF"/>
  </g>
</svg>