<?xml version="1.0" encoding="UTF-8"?>
<svg width="120px" height="15px" viewBox="0 0 120 15" version="1.1" xmlns="http://www.w3.org/2000/svg" xmlns:xlink="http://www.w3.org/1999/xlink">
    <!-- Generator: Sketch 51.2 (57519) - http://www.bohemiancoding.com/sketch -->
    <title>TOKENDATA</title>
    <desc>Created with Sketch.</desc>
    <defs></defs>
    <g id="Page-1" stroke="none" stroke-width="1" fill="none" fill-rule="evenodd">
        <g id="Front-Page" transform="translate(-143.000000, -37.000000)" fill="#FFFFFF">
            <g id="Header" transform="translate(135.000000, 30.000000)">
                <path d="M14.57,10.416 L14.57,21 L11.042,21 L11.042,10.416 L8.144,10.416 L8.144,7.428 L17.468,7.428 L17.468,10.416 L14.57,10.416 Z M22.112,14.214 C22.112,14.7540027 22.213999,15.2519977 22.418,15.708 C22.622001,16.1640023 22.8979983,16.5599983 23.246,16.896 C23.5940017,17.2320017 23.9989977,17.4929991 24.461,17.679 C24.9230023,17.8650009 25.4119974,17.958 25.928,17.958 C26.4440026,17.958 26.9329977,17.8650009 27.395,17.679 C27.8570023,17.4929991 28.2649982,17.2320017 28.619,16.896 C28.9730018,16.5599983 29.251999,16.1640023 29.456,15.708 C29.660001,15.2519977 29.762,14.7540027 29.762,14.214 C29.762,13.6739973 29.660001,13.1760023 29.456,12.72 C29.251999,12.2639977 28.9730018,11.8680017 28.619,11.532 C28.2649982,11.1959983 27.8570023,10.9350009 27.395,10.749 C26.9329977,10.5629991 26.4440026,10.47 25.928,10.47 C25.4119974,10.47 24.9230023,10.5629991 24.461,10.749 C23.9989977,10.9350009 23.5940017,11.1959983 23.246,11.532 C22.8979983,11.8680017 22.622001,12.2639977 22.418,12.72 C22.213999,13.1760023 22.112,13.6739973 22.112,14.214 Z M18.422,14.214 C18.422,13.205995 18.6079981,12.2670043 18.98,11.397 C19.3520019,10.5269956 19.8679967,9.76800324 20.528,9.12 C21.1880033,8.47199676 21.9769954,7.96500183 22.895,7.599 C23.8130046,7.23299817 24.8239945,7.05 25.928,7.05 C27.0200055,7.05 28.0279954,7.23299817 28.952,7.599 C29.8760046,7.96500183 30.6709967,8.47199676 31.337,9.12 C32.0030033,9.76800324 32.5219981,10.5269956 32.894,11.397 C33.2660019,12.2670043 33.452,13.205995 33.452,14.214 C33.452,15.222005 33.2660019,16.1609957 32.894,17.031 C32.5219981,17.9010044 32.0030033,18.6599968 31.337,19.308 C30.6709967,19.9560032 29.8760046,20.4629982 28.952,20.829 C28.0279954,21.1950018 27.0200055,21.378 25.928,21.378 C24.8239945,21.378 23.8130046,21.1950018 22.895,20.829 C21.9769954,20.4629982 21.1880033,19.9560032 20.528,19.308 C19.8679967,18.6599968 19.3520019,17.9010044 18.98,17.031 C18.6079981,16.1609957 18.422,15.222005 18.422,14.214 Z M39.212,13.026 L43.514,7.428 L47.87,7.428 L42.488,13.854 L48.374,21 L43.802,21 L39.212,15.114 L39.212,21 L35.684,21 L35.684,7.428 L39.212,7.428 L39.212,13.026 Z M57.662,10.416 L53.468,10.416 L53.468,12.684 L57.428,12.684 L57.428,15.672 L53.468,15.672 L53.468,18.012 L57.662,18.012 L57.662,21 L49.94,21 L49.94,7.428 L57.662,7.428 L57.662,10.416 Z M60.2,21 L60.2,7.428 L63.728,7.428 L70.244,15.726 L70.244,7.428 L73.754,7.428 L73.754,21 L70.244,21 L63.728,12.702 L63.728,21 L60.2,21 Z M80.126,18.012 L80.936,18.012 C81.5480031,18.012 82.0939976,17.916001 82.574,17.724 C83.0540024,17.531999 83.4589984,17.2680017 83.789,16.932 C84.1190017,16.5959983 84.3709991,16.1970023 84.545,15.735 C84.7190009,15.2729977 84.806,14.7660028 84.806,14.214 C84.806,13.6739973 84.7160009,13.1700023 84.536,12.702 C84.3559991,12.2339977 84.1010017,11.8320017 83.771,11.496 C83.4409984,11.1599983 83.0360024,10.896001 82.556,10.704 C82.0759976,10.511999 81.536003,10.416 80.936,10.416 L80.126,10.416 L80.126,18.012 Z M76.598,7.428 L81.818,7.428 C82.7420046,7.428 83.608996,7.61399814 84.419,7.986 C85.2290041,8.35800186 85.936997,8.85299691 86.543,9.471 C87.149003,10.0890031 87.6259983,10.8089959 87.974,11.631 C88.3220017,12.4530041 88.496,13.3139955 88.496,14.214 C88.496,15.1020044 88.3250017,15.9569959 87.983,16.779 C87.6409983,17.6010041 87.167003,18.3239969 86.561,18.948 C85.954997,19.5720031 85.2470041,20.0699981 84.437,20.442 C83.626996,20.8140019 82.7540047,21 81.818,21 L76.598,21 L76.598,7.428 Z M98.126,15.96 L96.542,11.442 L94.958,15.96 L98.126,15.96 Z M99.062,18.642 L94.022,18.642 L93.212,21 L89.45,21 L94.616,7.428 L98.468,7.428 L103.634,21 L99.872,21 L99.062,18.642 Z M110.33,10.416 L110.33,21 L106.802,21 L106.802,10.416 L103.904,10.416 L103.904,7.428 L113.228,7.428 L113.228,10.416 L110.33,10.416 Z M122.174,15.96 L120.59,11.442 L119.006,15.96 L122.174,15.96 Z M123.11,18.642 L118.07,18.642 L117.26,21 L113.498,21 L118.664,7.428 L122.516,7.428 L127.682,21 L123.92,21 L123.11,18.642 Z" id="TOKENDATA"></path>
            </g>
        </g>
    </g>
</svg>