<svg xmlns="http://www.w3.org/2000/svg" width="35" height="35" viewBox="0 0 30 30">
  <path d="M14.016 12.906c.082-.035.199-.05.343-.05.047 0 .141.003.278.011.14.008.367.024.68.055L14.07 9.328c-.32-.918-.57-1.512-.746-1.793-.18-.281-.37-.422-.578-.422a.482.482 0 0 0-.39.184c-.102.125-.153.289-.153.496 0 .355.137.969.406 1.844.27.879.672 2.027 1.211 3.449a.366.366 0 0 1 .196-.18zm0 0M15.398 17.547a5.63 5.63 0 0 1 .582-.629c.204-.188.418-.355.641-.504a6.433 6.433 0 0 1-.941-.102 5.297 5.297 0 0 1-.848-.23c.125.246.234.492.328.738.098.246.176.489.238.727zm0 0"/>
  <path d="M19.57 14.594c-.316-.262-.925-.496-1.84-.703-.91-.207-1.859-.309-2.851-.309-.277 0-.473.043-.586.137-.117.094-.176.25-.176.472 0 .524.293.903.88 1.137.581.235 1.526.352 2.835.352h.473c.105 0 .191.039.258.12.066.079.109.2.132.364-.133.121-.398.262-.808.418-.407.16-.719.313-.934.469-.46.336-.832.738-1.113 1.203-.277.465-.418.906-.418 1.32 0 .254.058.559.18.918.117.356.175.578.175.66v.082l-.023.106c-.336-.024-.606-.223-.8-.594-.196-.375-.294-.871-.294-1.496v-.102a.62.62 0 0 1-.18.114.486.486 0 0 1-.187.035c-.07 0-.137-.004-.2-.016-.058-.011-.128-.031-.206-.05.023.081.043.164.054.246.012.082.016.144.016.191a.96.96 0 0 1-.336.73 1.14 1.14 0 0 1-.793.305c-.484 0-.976-.234-1.476-.707s-.75-.937-.75-1.39c0-.083.011-.16.03-.223a.382.382 0 0 1 .098-.168c.106.129.258.32.45.574.508.7.976 1.05 1.406 1.05a.618.618 0 0 0 .39-.136c.118-.094.172-.191.172-.289 0-.117-.074-.309-.23-.578a7.263 7.263 0 0 0-.633-.91c-.308-.39-.562-.68-.765-.86-.204-.18-.368-.27-.493-.27-.265 0-.515.145-.742.434-.226.286-.34.625-.34 1.02 0 .313.078.664.239 1.055.156.386.382.777.683 1.168a4.573 4.573 0 0 0 1.688 1.402 5.086 5.086 0 0 0 2.23.488c1.5 0 2.754-.558 3.766-1.675 1.012-1.118 1.515-2.52 1.515-4.204 0-.515-.039-.922-.113-1.226-.078-.305-.207-.524-.383-.664zm0 0"/>
  <path d="M12.516 17.05c.34.454.656.805.957 1.06.3.253.539.382.714.382.13 0 .25-.062.36-.18a.583.583 0 0 0 .16-.386c0-.145-.105-.485-.316-1.02a10.4 10.4 0 0 0-.79-1.574c-.23-.383-.46-.676-.683-.871-.223-.195-.434-.293-.633-.293-.16 0-.34.102-.535.305s-.293.394-.293.57c0 .184.094.46.285.832.195.367.45.762.774 1.176zm0 0"/>
  <path d="M15.031 2.14c-7.16 0-12.96 5.805-12.96 12.962 0 7.156 5.8 12.96 12.96 12.96 7.156 0 12.957-5.804 12.957-12.96 0-7.157-5.8-12.961-12.957-12.961zm4.098 19.145c-1.168 1.235-2.656 1.852-4.469 1.852a5.77 5.77 0 0 1-2.082-.387 5.17 5.17 0 0 1-1.734-1.078c-.551-.508-.969-1.043-1.242-1.61a3.882 3.882 0 0 1-.418-1.734c0-.66.144-1.172.425-1.531.286-.363.735-.61 1.352-.738a6.1 6.1 0 0 1-.254-.68 1.636 1.636 0 0 1-.082-.426c0-.348.184-.7.547-1.062.367-.36.71-.54 1.031-.54.14 0 .285.024.442.075.152.05.328.133.527.246-.59-1.676-1.02-2.969-1.29-3.879-.269-.91-.402-1.54-.402-1.883 0-.476.122-.855.368-1.137.246-.28.582-.421 1.004-.421.722 0 1.636 1.613 2.742 4.843.191.551.34.98.437 1.278.086-.239.203-.575.36-1.012 1.105-3.2 2.058-4.797 2.859-4.797.39 0 .703.133.938.399.234.265.351.62.351 1.066 0 .336-.129.957-.387 1.855-.257.899-.648 2.075-1.168 3.528.692.129 1.18.422 1.461.875.285.453.43 1.168.43 2.144 0 1.938-.582 3.524-1.746 4.754zm0 0"/>
  <path d="M19.36 9.852c.285-.91.43-1.47.43-1.676 0-.227-.048-.399-.145-.52a.463.463 0 0 0-.395-.183c-.219 0-.438.175-.66.535-.223.355-.469.93-.738 1.722l-1.153 3.332 1.453.254a83.161 83.161 0 0 0 1.207-3.464zm0 0"/>
</svg>