<svg xmlns="http://www.w3.org/2000/svg" width="30" height="30">
  <path d="M22.066 12.8c1.239.235 2.11.759 2.614 1.567.508.809.761 2.086.761 3.832 0 3.461-1.039 6.293-3.12 8.496C20.237 28.898 17.577 30 14.335 30c-1.27 0-2.527-.234-3.715-.691a9.16 9.16 0 0 1-3.098-1.926 9.844 9.844 0 0 1-2.226-2.871 6.992 6.992 0 0 1-.738-3.098c0-1.18.253-2.094.761-2.738.508-.649 1.309-1.09 2.407-1.332a10.31 10.31 0 0 1-.454-1.215 2.825 2.825 0 0 1-.144-.762c0-.617.324-1.25.976-1.894.653-.649 1.27-.97 1.844-.97.266.005.531.048.785.134.329.117.645.265.946.445-1.059-2.996-1.828-5.305-2.309-6.934-.48-1.628-.719-2.75-.719-3.363 0-.855.223-1.531.66-2.031a2.263 2.263 0 0 1 1.793-.75c1.29 0 2.922 2.883 4.899 8.652.344.989.601 1.75.781 2.285.152-.425.363-1.027.637-1.812 1.984-5.715 3.687-8.57 5.117-8.57a2.12 2.12 0 0 1 1.676.71c.414.473.62 1.106.62 1.903 0 .605-.23 1.71-.69 3.316-.457 1.606-1.153 3.711-2.079 6.313zM7.313 21.208c.195.234.46.578.804 1.031.906 1.25 1.746 1.875 2.512 1.875.254.004.504-.086.7-.246a.681.681 0 0 0 .312-.515c0-.207-.141-.551-.414-1.032a13.33 13.33 0 0 0-1.133-1.629 12.425 12.425 0 0 0-1.371-1.53c-.364-.325-.657-.485-.875-.485-.48 0-.926.258-1.332.773a2.85 2.85 0 0 0-.606 1.82c.016.653.156 1.29.414 1.887.313.75.723 1.453 1.227 2.09a8.182 8.182 0 0 0 3.015 2.504 9.037 9.037 0 0 0 3.993.867 8.688 8.688 0 0 0 6.726-3c1.805-1.996 2.707-4.5 2.707-7.508a9.236 9.236 0 0 0-.207-2.195 2.092 2.092 0 0 0-.676-1.184c-.566-.464-1.66-.886-3.289-1.257a22.825 22.825 0 0 0-5.097-.555c-.496 0-.848.082-1.051.246-.207.168-.313.45-.313.848 0 .933.524 1.61 1.567 2.027 1.043.418 2.734.625 5.066.621h.848a.571.571 0 0 1 .465.207c.133.192.215.414.234.649-.234.218-.715.468-1.445.75a7.89 7.89 0 0 0-1.668.824 7.393 7.393 0 0 0-1.973 2.176 4.583 4.583 0 0 0-.754 2.359c.02.563.13 1.113.32 1.64.149.38.258.778.32 1.184v.145l-.042.187c-.602-.043-1.078-.398-1.43-1.062-.347-.668-.523-1.555-.523-2.668v-.188a.92.92 0 0 1-.66.27c-.118 0-.235-.008-.352-.031a3.035 3.035 0 0 1-.371-.094 3.33 3.33 0 0 1 .125.785c0 .504-.219.984-.598 1.309-.386.359-.898.554-1.422.546-.867 0-1.746-.421-2.636-1.27-.895-.843-1.34-1.667-1.34-2.476-.004-.136.015-.27.05-.402a.705.705 0 0 1 .173-.3zm6.183.492a.847.847 0 0 0 .637-.32c.18-.184.285-.43.289-.688 0-.261-.188-.867-.567-1.824a18.023 18.023 0 0 0-1.41-2.812 6.595 6.595 0 0 0-1.218-1.555c-.399-.348-.778-.523-1.133-.523-.29 0-.61.183-.957.546-.348.364-.524.704-.524 1.02 0 .328.172.82.512 1.48.398.743.86 1.446 1.383 2.102.496.695 1.07 1.332 1.71 1.895.536.449.962.675 1.278.675zm2.02-9.949l-2.227-6.434c-.578-1.632-1.023-2.703-1.34-3.203-.316-.504-.66-.754-1.031-.754a.86.86 0 0 0-.695.332 1.358 1.358 0 0 0-.27.887c0 .629.242 1.73.723 3.3.48 1.571 1.199 3.626 2.164 6.161a.694.694 0 0 1 .348-.32c.199-.067.41-.098.62-.09.083 0 .247.004.493.02.246.011.652.046 1.215.097zm2.324 6.238a13.41 13.41 0 0 1-1.676-.187 8.88 8.88 0 0 1-1.516-.414c.22.441.415.883.586 1.32.164.426.301.86.414 1.297.317-.399.66-.774 1.032-1.121.363-.332.75-.63 1.16-.895zm2.742-5.543c.918-2.5 1.637-4.562 2.152-6.195.516-1.629.774-2.629.774-2.996a1.474 1.474 0 0 0-.262-.926.85.85 0 0 0-.707-.332c-.387 0-.777.32-1.176.957-.398.64-.84 1.668-1.32 3.082l-2.063 5.953zm0 0" fill="#231f20"/>
</svg>