<svg xmlns="http://www.w3.org/2000/svg" width="30" height="30">
  <path d="M24.977 6.46c-2.391-1.92-6.168-2.245-6.329-2.257a.586.586 0 0 0-.593.352 3.144 3.144 0 0 0-.184.5c1.578.265 3.52.8 5.277 1.89a.601.601 0 0 1-.316 1.114.586.586 0 0 1-.316-.094C19.496 6.094 15.726 6 15 6c-.727 0-4.496.094-7.516 1.965a.597.597 0 0 1-.824-.192.601.601 0 0 1 .192-.828c1.757-1.086 3.699-1.625 5.277-1.89a4.36 4.36 0 0 0-.18-.5.59.59 0 0 0-.597-.352c-.16.012-3.938.336-6.36 2.285C3.73 7.656 1.2 14.492 1.2 20.398a.59.59 0 0 0 .082.301c1.742 3.063 6.504 3.867 7.586 3.903h.02a.601.601 0 0 0 .484-.247l1.098-1.511c-2.961-.762-4.473-2.063-4.559-2.14a.6.6 0 1 1 .797-.898c.035.03 2.816 2.393 8.293 2.393 5.484 0 8.27-2.37 8.297-2.394a.604.604 0 0 1 .848.054.602.602 0 0 1-.055.844c-.086.078-1.598 1.379-4.559 2.14l1.098 1.512c.11.153.293.247.484.247h.02c1.082-.036 5.844-.84 7.586-3.903a.59.59 0 0 0 .082-.3c0-5.907-2.531-12.743-3.824-13.938zM11.102 18C9.942 18 9 16.926 9 15.602c0-1.329.941-2.403 2.102-2.403 1.16 0 2.097 1.074 2.097 2.403 0 1.324-.937 2.398-2.097 2.398zm7.796 0c-1.16 0-2.097-1.074-2.097-2.398 0-1.329.937-2.403 2.097-2.403S21 14.273 21 15.602C21 16.926 20.059 18 18.898 18zm0 0"/>
</svg>