<?xml version="1.0" encoding="UTF-8"?>
<svg width="15px" height="30px" viewBox="0 0 15 30" version="1.1" xmlns="http://www.w3.org/2000/svg" xmlns:xlink="http://www.w3.org/1999/xlink">
    <!-- Generator: Sketch 51.2 (57519) - http://www.bohemiancoding.com/sketch -->
    <title>facebook-letter-logo</title>
    <desc>Created with Sketch.</desc>
    <defs></defs>
    <g id="Page-1" stroke="none" stroke-width="1" fill="none" fill-rule="evenodd">
        <g id="Front-Page" transform="translate(-784.000000, -6786.000000)" fill="#000000" fill-rule="nonzero">
            <g id="Footer-Section" transform="translate(195.000000, 6148.000000)">
                <g id="Social" transform="translate(544.000000, 638.000000)">
                    <g id="facebook-letter-logo" transform="translate(45.000000, 0.000000)">
                        <path d="M3.06828306,5.79814385 C3.06828306,6.55259861 3.06828306,9.9200464 3.06828306,9.9200464 L0.0484454756,9.9200464 L0.0484454756,14.9603248 L3.06828306,14.9603248 L3.06828306,29.9382599 L9.27167053,29.9382599 L9.27167053,14.9607425 L13.4344316,14.9607425 C13.4344316,14.9607425 13.8242923,12.5439675 14.0132715,9.90146172 C13.4714617,9.90146172 9.29512761,9.90146172 9.29512761,9.90146172 C9.29512761,9.90146172 9.29512761,6.96918794 9.29512761,6.45522042 C9.29512761,5.94013921 9.97148492,5.24728538 10.6399768,5.24728538 C11.3072158,5.24728538 12.7154756,5.24728538 14.0198144,5.24728538 C14.0198144,4.56104408 14.0198144,2.18993039 14.0198144,6.96055684e-05 C12.2785615,6.96055684e-05 10.297587,6.96055684e-05 9.42438515,6.96055684e-05 C2.914942,-0.000278422274 3.06828306,5.0450116 3.06828306,5.79814385 Z" id="Facebook"></path>
                    </g>
                </g>
            </g>
        </g>
    </g>
</svg>