<svg width="30" height="29" xmlns="http://www.w3.org/2000/svg">
  <path d="M29.939 17.578v11.069h-6.417V18.32c0-2.595-.928-4.365-3.251-4.365-1.773 0-2.828 1.193-3.292 2.347-.17.413-.213.987-.213 1.565v10.78h-6.42s.087-17.491 0-19.303h6.42v2.736l-.043.062h.042v-.062c.853-1.313 2.376-3.19 5.784-3.19 4.224 0 7.39 2.76 7.39 8.688zM3.632.038C1.436.039 0 1.48 0 3.374 0 5.226 1.395 6.71 3.547 6.71h.043c2.238 0 3.63-1.484 3.63-3.337C7.178 1.48 5.828.04 3.632.04zM.382 28.648h6.416V9.344H.38v19.303z" fill="#000" fill-rule="nonzero"/>
</svg>