<svg xmlns="http://www.w3.org/2000/svg" width="30" height="30">
  <path fill="#12100e" d="M0 0h30v30H0z"/>
  <path d="M7.16 10.031a.787.787 0 0 0-.254-.656L5.023 7.109v-.34h5.844l4.516 9.907 3.969-9.906h5.57v.34l-1.61 1.542a.463.463 0 0 0-.175.45v11.335a.463.463 0 0 0 .175.45l1.575 1.543v.34H16.98v-.34l1.63-1.578c.16-.16.16-.207.16-.454v-9.16L14.242 22.73h-.61L8.364 11.238v7.703c-.043.325.063.649.293.883l2.117 2.57v.336H4.77v-.335l2.117-2.57c.226-.235.328-.563.273-.884zm0 0" fill="#fff"/>
</svg>