<svg xmlns="http://www.w3.org/2000/svg" width="30" height="30">
  <path d="M10.27 16.863v.004h.93zm0 0M19.602 16.863v.004h.933zm0 0"/>
  <path d="M30 14.066a3.74 3.74 0 0 0-3.734-3.734 3.67 3.67 0 0 0-2.243.758c-2.085-1.45-4.812-2.309-7.714-2.527l1.566-3.676 4.555 1.066a2.793 2.793 0 0 0 2.773 2.512c1.543 0 2.8-1.254 2.8-2.8a2.802 2.802 0 0 0-2.8-2.798c-.98 0-1.84.504-2.34 1.27L17.535 2.89a.93.93 0 0 0-1.07.543l-2.168 5.078c-3.133.11-6.121.992-8.375 2.527a3.669 3.669 0 0 0-2.188-.707A3.74 3.74 0 0 0 0 14.066a3.7 3.7 0 0 0 1.887 3.23c-.016.165-.02.333-.02.505 0 5.144 5.863 9.332 13.067 9.332 7.207 0 13.07-4.188 13.07-9.332 0-.145-.008-.29-.016-.434a3.702 3.702 0 0 0 2.012-3.3zm-4.797-9.332c.512 0 .934.418.934.93a.934.934 0 1 1-1.867 0c0-.512.418-.93.933-.93zm-16.8 12.133A1.87 1.87 0 0 1 10.27 15a1.866 1.866 0 1 1-1.867 1.867zm10.843 6.192a7.34 7.34 0 0 1-8.621 0 .932.932 0 1 1 1.094-1.512 5.476 5.476 0 0 0 6.433 0 .929.929 0 0 1 1.301.21.93.93 0 0 1-.207 1.302zm.356-4.325a1.867 1.867 0 1 1 0-3.734 1.867 1.867 0 0 1 0 3.734zm0 0"/>
</svg>