<svg width="30" height="30" xmlns="http://www.w3.org/2000/svg">
  <path d="M29.81 16.056a2.667 2.667 0 0 0-3.36-1.712l-2.688.874-1.824-5.614 2.687-.874a2.667 2.667 0 1 0-1.648-5.073l-2.688.874-.874-2.688a2.665 2.665 0 1 0-5.071 1.649l.874 2.687-5.614 1.825-.872-2.688a2.667 2.667 0 0 0-5.073 1.647l.874 2.69-2.774.901A2.666 2.666 0 0 0 .105 13.8c.408 1.415 1.91 2.278 3.301 1.827l2.773-.902 1.825 5.614-2.773.902a2.669 2.669 0 0 0-1.655 3.245c.408 1.414 1.91 2.279 3.301 1.826.012-.004 1.103-.357 2.776-.902l.902 2.773a2.669 2.669 0 0 0 3.244 1.655c1.415-.408 2.28-1.91 1.827-3.301-.004-.012-.358-1.1-.9-2.774l5.614-1.824.902 2.773a2.669 2.669 0 0 0 3.245 1.654c1.414-.408 2.279-1.91 1.826-3.3l-.902-2.774 2.687-.874a2.668 2.668 0 0 0 1.713-3.36zm-16.733 2.635c-.597-1.834-1.23-3.784-1.824-5.614l5.614-1.825 1.824 5.614-5.614 1.825z" fill="#000" fill-rule="nonzero"/>
</svg>