<svg width="30" height="21" xmlns="http://www.w3.org/2000/svg">
  <path d="M26.546 9.232c1.682-.138 2.822-.903 3.261-1.94-.606.373-2.489.779-3.529.392a12.846 12.846 0 0 0-.164-.686c-.792-2.91-3.505-5.253-6.347-4.97.23-.093.463-.18.696-.257.312-.112 2.148-.41 1.86-1.059-.245-.57-2.487.431-2.91.562.558-.21 1.48-.57 1.579-1.21a4.452 4.452 0 0 0-2.34 1.107c.233-.252.41-.558.448-.889-2.278 1.456-3.608 4.39-4.685 7.235-.846-.82-1.595-1.464-2.268-1.823-1.886-1.011-4.14-2.066-7.68-3.38-.11 1.17.578 2.728 2.56 3.764-.429-.058-1.214.07-1.842.22.255 1.343 1.09 2.448 3.352 2.983-1.033.068-1.567.303-2.051.81.47.933 1.62 2.032 3.685 1.806-2.297.99-.936 2.824.933 2.55C7.915 17.743 2.887 17.5 0 14.745c7.538 10.272 23.925 6.075 26.367-3.819 1.83.016 2.905-.633 3.572-1.35-1.055.18-2.582-.005-3.393-.343z" fill="#000" fill-rule="nonzero"/>
</svg>