<?xml version="1.0" encoding="UTF-8"?>
<svg width="30px" height="27px" viewBox="0 0 30 27" version="1.1" xmlns="http://www.w3.org/2000/svg" xmlns:xlink="http://www.w3.org/1999/xlink">
    <!-- Generator: Sketch 51.2 (57519) - http://www.bohemiancoding.com/sketch -->
    <title>wechat</title>
    <desc>Created with Sketch.</desc>
    <defs></defs>
    <g id="Page-1" stroke="none" stroke-width="1" fill="none" fill-rule="evenodd">
        <g id="Front-Page" transform="translate(-949.000000, -6790.000000)" fill="#000000" fill-rule="nonzero">
            <g id="Footer-Section" transform="translate(195.000000, 6148.000000)">
                <g id="Social" transform="translate(544.000000, 638.000000)">
                    <g id="wechat" transform="translate(210.000000, 4.000000)">
                        <path d="M11.25,0 C5.03625,0 0,4.198125 0,9.375 C0,12.36 1.68375,15.0075 4.295625,16.72125 L2.8125,19.6875 L6.853125,17.956875 C7.719375,18.264375 8.619375,18.5175 9.58125,18.635625 C9.45,18.06375 9.375,17.476875 9.375,16.875 C9.375,11.705625 14.420625,7.5 20.625,7.5 C21.193125,7.5 21.748125,7.546875 22.295625,7.614375 C21.305625,3.279375 16.74,0 11.25,0 Z M7.5,7.03125 C6.72375,7.03125 6.09375,6.40125 6.09375,5.625 C6.09375,4.84875 6.72375,4.21875 7.5,4.21875 C8.27625,4.21875 8.90625,4.84875 8.90625,5.625 C8.90625,6.40125 8.27625,7.03125 7.5,7.03125 Z M15,7.03125 C14.22375,7.03125 13.59375,6.40125 13.59375,5.625 C13.59375,4.84875 14.22375,4.21875 15,4.21875 C15.77625,4.21875 16.40625,4.84875 16.40625,5.625 C16.40625,6.40125 15.77625,7.03125 15,7.03125 Z" id="Shape"></path>
                        <path d="M30,16.875 C30,12.733125 25.801875,9.375 20.625,9.375 C15.448125,9.375 11.25,12.733125 11.25,16.875 C11.25,21.016875 15.448125,24.375 20.625,24.375 C21.47625,24.375 22.28625,24.255 23.071875,24.084375 L28.125,26.25 L26.3775,22.756875 C28.5675,21.384375 30,19.273125 30,16.875 Z M17.8125,16.40625 C17.03625,16.40625 16.40625,15.77625 16.40625,15 C16.40625,14.22375 17.03625,13.59375 17.8125,13.59375 C18.58875,13.59375 19.21875,14.22375 19.21875,15 C19.21875,15.77625 18.58875,16.40625 17.8125,16.40625 Z M23.4375,16.40625 C22.66125,16.40625 22.03125,15.77625 22.03125,15 C22.03125,14.22375 22.66125,13.59375 23.4375,13.59375 C24.21375,13.59375 24.84375,14.22375 24.84375,15 C24.84375,15.77625 24.21375,16.40625 23.4375,16.40625 Z" id="Shape"></path>
                    </g>
                </g>
            </g>
        </g>
    </g>
</svg>