<svg width="30" height="27" xmlns="http://www.w3.org/2000/svg">
  <g fill="#000" fill-rule="nonzero">
    <path d="M11.25 0C5.036 0 0 4.198 0 9.375c0 2.985 1.684 5.633 4.296 7.346l-1.484 2.966 4.041-1.73c.866.307 1.766.56 2.728.679a7.85 7.85 0 0 1-.206-1.761c0-5.17 5.046-9.375 11.25-9.375.568 0 1.123.047 1.67.114C21.306 3.28 16.74 0 11.25 0zM7.5 7.031a1.407 1.407 0 1 1 .001-2.813A1.407 1.407 0 0 1 7.5 7.03zm7.5 0a1.407 1.407 0 1 1 .001-2.813A1.407 1.407 0 0 1 15 7.03z"/>
    <path d="M30 16.875c0-4.142-4.198-7.5-9.375-7.5s-9.375 3.358-9.375 7.5c0 4.142 4.198 7.5 9.375 7.5.851 0 1.661-.12 2.447-.29l5.053 2.165-1.747-3.493C28.568 21.384 30 19.273 30 16.875zm-12.188-.469a1.407 1.407 0 1 1 .002-2.813 1.407 1.407 0 0 1-.002 2.813zm5.625 0a1.407 1.407 0 1 1 .002-2.813 1.407 1.407 0 0 1-.002 2.813z"/>
  </g>
</svg>