<svg width="50" height="48" xmlns="http://www.w3.org/2000/svg">
  <g fill="#000" fill-rule="nonzero">
    <path d="M36.8 9.79h7.872v4.28H36.8m0 1.63h7.872v4.28H36.8m0 1.63h7.872v4.28H36.8m0 1.633h7.872v4.28H36.8m0 1.63h7.872v4.279H36.8"/>
    <path d="M48.579 4.953h-20.17a.922.922 0 0 0-.102.007V.228L.185 5.194v37.108l28.122 4.889v-4.733c.032.002.066.005.1.005h20.17a1.22 1.22 0 0 0 1.22-1.223V6.178c0-.675-.547-1.223-1.22-1.223l.002-.002zM15.823 32.058l-2.465-6.216-2.514 5.936-3.402-.178 3.935-7.872-3.48-7.721 3.442-.19 2.12 5.821 2.527-6.076 3.465-.19-4.062 8.357 4.166 8.535-3.733-.205h.001zm32.457 8.923H28.307v-3.267h6.867v-4.28h-6.868v-1.632h6.867v-4.279h-6.868v-1.632h6.867v-4.28h-6.869v-1.63h6.868V15.7h-6.869V14.07h6.868V9.79H28.3V6.437h19.98v34.545z"/>
  </g>
</svg>