<svg width="36" height="50" xmlns="http://www.w3.org/2000/svg">
  <path d="M11.594 38.667c-7.505 2.148 4.566 6.585 14.122 2.39-1.565-.622-2.688-1.341-2.688-1.341-4.26.825-6.238.89-10.106.437-3.192-.375-1.328-1.486-1.328-1.486zm12.978-4.19c-5.648 1.113-8.91 1.078-13.043.64-3.195-.338-1.103-1.924-1.103-1.924-8.266 2.81 4.601 6 16.153 2.538-1.228-.443-2.007-1.254-2.007-1.254zm4.426-24.264s-16.71 4.274-8.729 13.694c2.356 2.778-.618 5.275-.618 5.275s5.979-3.16 3.234-7.12c-2.565-3.691-4.531-5.525 6.113-11.849zm3.91 32.503s1.38 1.166-1.52 2.067c-5.515 1.71-22.957 2.227-27.802.068-1.74-.776 1.525-1.853 2.552-2.08 1.071-.237 1.683-.194 1.683-.194-1.937-1.397-12.519 2.744-5.374 3.932 19.482 3.234 35.514-1.457 30.461-3.793zm-6.696-12.15c.937-.654 2.23-1.223 2.23-1.223s-3.685.675-7.356.991c-4.495.386-9.316.462-11.736.13-5.73-.784 3.14-2.943 3.14-2.943s-3.445-.238-7.68 1.86c-5.011 2.482 12.392 3.613 21.402 1.185zm2.194 6.066c-.043.117-.183.247-.183.247 12.229-3.293 7.732-11.608 1.885-9.503-.513.186-.782.618-.782.618s.324-.134 1.047-.288c2.956-.631 7.191 4.053-1.967 8.926zM18.07 27.431c-1.804-4.178-7.923-7.832.003-14.244C27.956 5.197 22.885 0 22.885 0c2.045 8.255-7.215 10.748-10.558 15.889-2.276 3.503 1.118 7.267 5.744 11.542zm10.665 20.728c-7.503 1.447-16.757 1.278-22.245.35 0 0 1.124.953 6.9 1.334 8.79.576 22.29-.32 22.609-4.58 0 0-.614 1.614-7.264 2.896z" fill="#000" fill-rule="nonzero"/>
</svg>