<?xml version="1.0" encoding="UTF-8"?>
<svg width="36px" height="50px" viewBox="0 0 36 50" version="1.1" xmlns="http://www.w3.org/2000/svg" xmlns:xlink="http://www.w3.org/1999/xlink">
    <!-- Generator: Sketch 51.2 (57519) - http://www.bohemiancoding.com/sketch -->
    <title>Shape</title>
    <desc>Created with Sketch.</desc>
    <defs></defs>
    <g id="Page-1" stroke="none" stroke-width="1" fill="none" fill-rule="evenodd">
        <g id="Technology-Page" transform="translate(-909.000000, -4199.000000)" fill="#000000" fill-rule="nonzero">
            <g id="API-Section" transform="translate(165.000000, 3809.000000)">
                <g id="Coding" transform="translate(583.000000, 390.000000)">
                    <path d="M172.593735,38.666851 C165.088808,40.8146311 177.159962,45.2515875 186.71631,41.0577685 C185.150958,40.4345037 184.028269,39.7155061 184.028269,39.7155061 C179.767056,40.540651 177.790326,40.605541 173.922113,40.152913 C170.729625,39.7783933 172.593735,38.666851 172.593735,38.666851 Z M185.572113,34.4770376 C179.923865,35.5901821 176.661381,35.5545326 172.529213,35.1179268 C169.333987,34.7794572 171.425685,33.1932563 171.425685,33.1932563 C163.160176,36.0035556 176.027106,39.1923802 187.579345,35.7311777 C186.351465,35.288163 185.572113,34.4770376 185.572113,34.4770376 Z M189.998347,10.2133713 C189.998738,10.2133713 173.288621,14.4869009 181.269059,23.9071717 C183.624711,26.685026 180.651208,29.1824913 180.651208,29.1824913 C180.651208,29.1824913 186.629889,26.0217056 183.884756,22.0618112 C181.319894,18.3706897 179.353722,16.5369453 189.998347,10.2133713 Z M193.90801,42.7160694 C193.90801,42.7160694 195.288007,43.8816867 192.387629,44.7825367 C186.873118,46.4937109 169.430966,47.0096268 164.586315,44.8510317 C162.846167,44.0747546 166.110998,42.9984612 167.138272,42.7713461 C168.209343,42.5338165 168.820937,42.5770765 168.820937,42.5770765 C166.884484,41.1803385 156.302427,45.3208836 163.447202,46.5085315 C182.929434,49.74342 198.960697,45.0517101 193.90801,42.7160694 Z M187.212154,30.5660109 C188.148706,29.9115028 189.442281,29.3431142 189.442281,29.3431142 C189.442281,29.3431142 185.757077,30.0180506 182.08556,30.3340892 C177.590893,30.7202249 172.769705,30.7963305 170.34953,30.4646703 C164.619945,29.6799816 173.490791,27.5213865 173.490791,27.5213865 C173.490791,27.5213865 170.044906,27.2826552 165.809112,29.3815675 C160.799049,31.8630106 178.201705,32.9941801 187.212154,30.5660109 Z M189.405523,36.6324282 C189.36329,36.7485894 189.222514,36.8791706 189.222514,36.8791706 C201.451651,33.5862015 196.955421,25.2714647 191.108131,27.3759847 C190.595081,27.5618426 190.326042,27.9940423 190.326042,27.9940423 C190.326042,27.9940423 190.650218,27.8602567 191.373259,27.7056421 C194.329165,27.0747668 198.564178,31.7588661 189.405523,36.6324282 Z M179.070997,27.4308609 C177.266718,23.2534646 171.148434,19.5987937 179.073734,13.1874979 C188.955822,5.19761179 183.885147,0 183.885147,0 C185.93031,8.2546535 176.669984,10.7481132 173.327335,15.8888461 C171.051064,19.3917064 174.444549,23.155729 179.070997,27.4308609 Z M189.736347,48.1588213 C182.233375,49.6056288 172.978523,49.4369948 167.490994,48.5089071 C167.490994,48.5089071 168.614856,49.4622298 174.391367,49.8431584 C183.180485,50.418757 196.680907,49.5227137 197,45.2624025 C197.000391,45.2624025 196.38606,46.8774434 189.736347,48.1588213 Z" id="Shape"></path>
                </g>
            </g>
        </g>
    </g>
</svg>