<svg width="45" height="50" xmlns="http://www.w3.org/2000/svg">
  <path d="M42.457 11.079L24.204.49c-1.15-.655-2.656-.655-3.815 0L1.993 11.08C.807 11.762 0 13.045 0 14.417v21.147c0 1.373.824 2.656 2.01 3.343l4.85 2.765c2.327 1.146 2.972 1.146 4.03 1.146 3.446 0 5.236-2.083 5.236-5.718V16.223c0-.295.185-.734-.105-.734h-2.325c-.294 0-.878.439-.878.733V37.1c0 1.611-1.495 3.214-4.218 1.853l-5.012-2.9a.555.555 0 0 1-.28-.489V14.417c0-.2.191-.4.368-.501l18.35-10.57a.624.624 0 0 1 .586 0L40.79 13.913c.174.105.146.299.146.504v21.147c0 .202.038.399-.134.496L22.554 46.635a.536.536 0 0 1-.531 0l-4.68-2.79c-.14-.082-.31-.112-.446-.036-1.3.737-1.542.835-2.762 1.258-.3.105-.744.287.169.798l6.119 3.62a3.847 3.847 0 0 0 3.85 0l18.185-10.578c1.187-.692 1.787-1.97 1.787-3.343V14.417c0-1.372-.6-2.652-1.788-3.338zM28.005 32.213c-4.849 0-5.917-1.337-6.273-3.748-.042-.26-.262-.57-.526-.57h-2.37c-.293 0-.53.355-.53.647 0 3.087 1.68 6.828 9.7 6.828 5.804 0 9.132-2.256 9.132-6.248 0-3.958-2.674-4.997-8.303-5.742-5.691-.752-6.27-1.132-6.27-2.465 0-1.1.49-2.565 4.704-2.565 3.765 0 5.152.808 5.723 3.346.05.238.267.41.513.41h2.38c.146 0 .285-.06.388-.164a.535.535 0 0 0 .139-.405c-.37-4.37-3.272-6.407-9.143-6.407-5.224 0-8.339 2.206-8.339 5.903 0 4.01 3.1 5.118 8.114 5.614 5.998.588 6.464 1.464 6.464 2.644 0 2.05-1.645 2.922-5.503 2.922z" fill="#000" fill-rule="nonzero"/>
</svg>