<?xml version="1.0" encoding="UTF-8"?>
<svg width="45px" height="50px" viewBox="0 0 45 50" version="1.1" xmlns="http://www.w3.org/2000/svg" xmlns:xlink="http://www.w3.org/1999/xlink">
    <!-- Generator: Sketch 51.2 (57519) - http://www.bohemiancoding.com/sketch -->
    <title>Shape</title>
    <desc>Created with Sketch.</desc>
    <defs></defs>
    <g id="Page-1" stroke="none" stroke-width="1" fill="none" fill-rule="evenodd">
        <g id="Technology-Page" transform="translate(-975.000000, -4201.000000)" fill="#000000" fill-rule="nonzero">
            <g id="API-Section" transform="translate(165.000000, 3809.000000)">
                <g id="Coding" transform="translate(583.000000, 390.000000)">
                    <path d="M269.457347,13.0789041 L251.204219,2.49123794 C250.054276,1.83625402 248.547896,1.83625402 247.388855,2.49123794 L228.99307,13.0789041 C227.806738,13.7615925 227,15.0446828 227,16.4170891 L227,37.5643034 C227,38.9367097 227.823692,40.2202135 229.010437,40.9066234 L233.860378,43.6721111 C236.187142,44.8183329 236.831788,44.8183329 237.890348,44.8183329 C241.336457,44.8183329 243.126084,42.7347067 243.126084,39.1004557 L243.126084,18.2228434 C243.126498,17.9280179 243.310505,17.4892945 243.020642,17.4892945 L240.695945,17.4892945 C240.401533,17.4892945 239.818498,17.9280179 239.818498,18.2224299 L239.818498,39.1000422 C239.818498,40.711038 238.323283,42.3141773 235.599972,40.9525219 L230.587526,38.0526468 C230.413029,37.9575418 230.308,37.7660914 230.308,37.5643034 L230.308,16.4170891 C230.308,16.2177822 230.49945,16.0176482 230.676428,15.9155137 L249.026729,5.34604157 C249.198331,5.24886908 249.441056,5.24886908 249.611831,5.34604157 L267.790529,15.9130327 C267.964613,16.0176482 267.936908,16.2115797 267.936908,16.4170891 L267.936908,37.5643034 C267.936908,37.7660914 267.97495,37.9625038 267.803348,38.0596763 L249.554355,48.6353509 C249.398052,48.7292154 249.19461,48.7292154 249.023007,48.6353509 L244.343428,45.8446398 C244.202425,45.7627668 244.032476,45.7334083 243.896848,45.8090788 C242.596391,46.5463492 242.354907,46.6443487 241.135082,47.0673591 C240.834468,47.1719746 240.391196,47.3535011 241.30379,47.8650005 L247.422762,51.4847791 C248.008278,51.823849 248.674427,52 249.344297,52 C250.023264,52 250.687758,51.823849 251.273687,51.4847791 L269.457761,40.9066234 C270.644919,40.2152515 271.244908,38.9367097 271.244908,37.5643034 L271.244908,16.4170891 C271.244494,15.0446828 270.644506,13.7649005 269.457347,13.0789041 Z M255.005111,34.2132998 C250.155997,34.2132998 249.08834,32.8756275 248.732317,30.4645093 C248.69014,30.2048313 248.470158,29.8942929 248.205518,29.8942929 L245.836163,29.8942929 C245.542992,29.8942929 245.306883,30.2499028 245.306883,30.5418338 C245.306883,33.6290244 246.985693,37.3695449 255.005111,37.3695449 C260.809823,37.3695449 264.138498,35.1139027 264.138498,31.1219742 C264.138498,27.1639527 261.464394,26.1252409 255.834592,25.380114 C250.144005,24.6279576 249.565933,24.2479511 249.565933,22.9148273 C249.565933,21.8157444 250.055517,20.3498871 254.269081,20.3498871 C258.033584,20.3498871 259.42129,21.157866 259.992334,23.6955152 C260.04154,23.9341046 260.259455,24.1052936 260.505487,24.1052936 L262.884766,24.1052936 C263.031145,24.1052936 263.170494,24.0461631 263.273042,23.9415476 C263.372696,23.8290757 263.424797,23.6880722 263.411978,23.5367312 C263.042723,19.1664503 260.139953,17.129963 254.268667,17.129963 C249.045336,17.129963 245.930028,19.3355717 245.930028,23.0326748 C245.930028,27.0427972 249.030037,28.1509771 254.043723,28.6467635 C260.04154,29.2347605 260.507968,30.1113803 260.507968,31.2910957 C260.507968,33.3404014 258.863065,34.2132998 255.005111,34.2132998 Z" id="Shape"></path>
                </g>
            </g>
        </g>
    </g>
</svg>