<svg width="50" height="50" xmlns="http://www.w3.org/2000/svg">
  <path d="M18.733 24.183h11.914c3.316 0 5.929-2.807 5.929-6.137V6.688c0-3.233-2.71-5.662-5.947-6.2A37.047 37.047 0 0 0 24.424 0c-2.04.01-3.928.183-5.641.487-5.048.891-5.905 2.758-5.905 6.2v4.42h11.849v1.635H8.29c-3.466 0-6.502 2.087-7.451 6.052-1.096 4.543-1.144 7.321 0 12.066.848 3.53 2.872 5.99 6.34 5.99h4.063v-5.332c0-3.938 3.444-7.335 7.49-7.335zm-.751-15.98c-1.237 0-2.239-1.013-2.239-2.266 0-1.258 1.002-2.28 2.239-2.28 1.232 0 2.238 1.022 2.238 2.28 0 1.253-1.007 2.266-2.238 2.266zm30.558 10.59c-.857-3.451-2.494-6.051-5.965-6.051H38.21v5.304c0 4.106-3.593 7.362-7.563 7.362H18.733c-3.264 0-5.855 2.994-5.855 6.263V43.03c0 3.231 2.755 5.133 5.909 6.06 3.776 1.11 7.352 1.311 11.87 0 3.002-.87 5.919-2.619 5.919-6.06v-4.547h-11.85V36.85h17.849c3.466 0 4.759-2.36 5.965-5.99 1.245-3.736 1.192-7.272 0-12.065zM31.397 41.515c1.237 0 2.24 1.013 2.24 2.267 0 1.256-1.002 2.28-2.24 2.28-1.231 0-2.238-1.023-2.238-2.28 0-1.254 1.007-2.267 2.238-2.267z" fill="#000" fill-rule="nonzero"/>
</svg>