<?xml version="1.0" encoding="UTF-8"?>
<svg width="50px" height="50px" viewBox="0 0 50 50" version="1.1" xmlns="http://www.w3.org/2000/svg" xmlns:xlink="http://www.w3.org/1999/xlink">
    <!-- Generator: Sketch 51.2 (57519) - http://www.bohemiancoding.com/sketch -->
    <title>Shape</title>
    <desc>Created with Sketch.</desc>
    <defs></defs>
    <g id="Page-1" stroke="none" stroke-width="1" fill="none" fill-rule="evenodd">
        <g id="Technology-Page" transform="translate(-829.000000, -4199.000000)" fill="#000000" fill-rule="nonzero">
            <g id="API-Section" transform="translate(165.000000, 3809.000000)">
                <g id="Coding" transform="translate(583.000000, 390.000000)">
                    <path d="M99.7326707,24.1826869 L111.646875,24.1826869 C114.963435,24.1826869 117.575988,21.3764606 117.575988,18.0460077 L117.575988,6.68790079 C117.575988,3.45510195 114.86619,1.02641689 111.628896,0.487072289 C109.580204,0.145895972 107.463277,-0.00936989716 105.423573,0.000436368258 C103.384687,0.00983403928 101.496164,0.183486656 99.7829278,0.487072289 C94.7347441,1.37821666 93.877513,3.24549303 93.877513,6.68790079 L93.877513,11.1076663 L105.72675,11.1076663 L105.72675,12.7420439 L89.2914496,12.7420439 C85.8249348,12.7420439 82.7890784,14.8291441 81.8399136,18.7937354 C80.7444721,23.3373051 80.6958493,26.1153384 81.8399136,30.8595278 C82.687747,34.3906006 84.7123322,36.849113 88.1792556,36.849113 L92.2431355,36.849113 L92.2431355,31.5177734 C92.2431355,27.5801493 95.686769,24.1826869 99.7326707,24.1826869 Z M98.9816742,8.2025602 C97.7452676,8.2025602 96.7433941,7.1896547 96.7433941,5.93690429 C96.7433941,4.67884216 97.744859,3.65653899 98.9816742,3.65653899 C100.213586,3.65653899 101.220363,4.67884216 101.220363,5.93690429 C101.219954,7.1896547 100.213178,8.2025602 98.9816742,8.2025602 Z M129.54004,18.7937354 C128.682809,15.34193 127.046389,12.7420439 123.574971,12.7420439 L119.210365,12.7420439 L119.210365,18.0460077 C119.210365,22.1523813 115.617186,25.4084701 111.646875,25.4084701 L99.7326707,25.4084701 C96.4688187,25.4084701 93.877513,28.4018326 93.877513,31.6705877 L93.877513,43.0295118 C93.877513,46.2614935 96.6334822,48.1630918 99.7866051,49.090601 C103.562835,50.200752 107.138853,50.4013718 111.656681,49.090601 C114.659441,48.2207036 117.575988,46.4711024 117.575988,43.0295118 L117.575988,38.4834906 L105.72675,38.4834906 L105.72675,36.849113 L123.574971,36.849113 C127.041485,36.849113 128.33387,34.4890718 129.54004,30.8591192 C130.785027,27.1225235 130.731501,23.5865477 129.54004,18.7937354 Z M112.397462,41.5140352 C113.634278,41.5140352 114.636151,42.5269407 114.636151,43.7805083 C114.636151,45.0373447 113.634686,46.0600564 112.397462,46.0600564 C111.16555,46.0600564 110.159182,45.0377533 110.159182,43.7805083 C110.159182,42.5269407 111.16555,41.5140352 112.397462,41.5140352 Z" id="Shape"></path>
                </g>
            </g>
        </g>
    </g>
</svg>