<svg width="50" height="40" xmlns="http://www.w3.org/2000/svg">
  <g fill="#000" fill-rule="nonzero">
    <path d="M19.799 39.326V10.262h17.058c6.11 0 7.888 4.79 7.888 6.841 0 3.25-1.017 8.039-7.636 8.98 0 0 3.055 1.025 4.158 2.822C42.37 30.7 47.46 39.323 47.46 39.323h-9.588s-4.242-8.965-5.43-10.249c-1.186-1.282-1.782-1.881-3.225-1.881-1.441 0-1.441.684-1.441 1.967v10.163h-7.977v.003zM33.63 21.55c1.357 0 2.46-1.198 2.46-2.61 0-1.41-.848-2.607-2.46-2.607h-5.77v5.217h5.77z"/>
    <path d="M9.919 18.526c0-6.288 8.662-11.384 19.345-11.384 10.684 0 19.344 5.095 19.344 11.384 0 3.637-2.902 6.872-7.415 8.957.308.295.585.616.8.97.14.227.349.57.601.991 4.396-3.088 7.11-7.314 7.11-11.982C49.705 8.008 38.593.343 24.884.343 11.173.343.059 8.006.059 17.462c0 8.043 8.044 14.787 18.886 16.622v-5.937c-5.418-2.018-9.023-5.57-9.023-9.623"/>
  </g>
</svg>